M48
METRIC,TZ
T1C0.400
T2C0.800
T3C1.000
T4C1.300
T5C1.320
%
G90
G05
T1
X113904Y-88936
X114270Y-80604
X133045Y-98740
X137231Y-85837
T2
X115021Y-68985
X115021Y-90985
X117021Y-68985
X117021Y-90985
X119021Y-68985
X119021Y-90985
X120076Y-64018
X121021Y-68985
X121021Y-90985
X123021Y-68985
X123021Y-90985
X125021Y-68985
X125021Y-90985
X125076Y-60018
X127021Y-68985
X127021Y-90985
X129021Y-68985
X129021Y-90985
X130076Y-64018
X131021Y-68985
X131021Y-90985
X133021Y-68985
X133021Y-90985
T3
X99254Y-62289
X111254Y-62289
T4
X99254Y-74489
X105254Y-60289
X111254Y-74489
X113064Y-101535
X113064Y-106535
X142464Y-96335
X142464Y-111735
T5
X103952Y-97099
X103952Y-102099
X103952Y-107099
X104008Y-81633
X104008Y-86633
X104008Y-91633
T0
M30
