G04 #@! TF.GenerationSoftware,KiCad,Pcbnew,no-vcs-found-7664~57~ubuntu16.10.1*
G04 #@! TF.CreationDate,2017-02-19T10:59:36+01:00*
G04 #@! TF.ProjectId,relayboard,72656C6179626F6172642E6B69636164,rev?*
G04 #@! TF.FileFunction,Legend,Top*
G04 #@! TF.FilePolarity,Positive*
%FSLAX46Y46*%
G04 Gerber Fmt 4.6, Leading zero omitted, Abs format (unit mm)*
G04 Created by KiCad (PCBNEW no-vcs-found-7664~57~ubuntu16.10.1) date Sun Feb 19 10:59:36 2017*
%MOMM*%
%LPD*%
G01*
G04 APERTURE LIST*
%ADD10C,0.100000*%
%ADD11C,0.300000*%
%ADD12C,0.150000*%
%ADD13C,0.381000*%
%ADD14C,0.120000*%
%ADD15C,0.304800*%
%ADD16C,0.203200*%
G04 APERTURE END LIST*
D10*
D11*
X95333428Y-90413674D02*
X96833428Y-90413674D01*
X95333428Y-91270817D01*
X96833428Y-91270817D01*
X96833428Y-92270817D02*
X96833428Y-92556531D01*
X96762000Y-92699388D01*
X96619142Y-92842245D01*
X96333428Y-92913674D01*
X95833428Y-92913674D01*
X95547714Y-92842245D01*
X95404857Y-92699388D01*
X95333428Y-92556531D01*
X95333428Y-92270817D01*
X95404857Y-92127960D01*
X95547714Y-91985102D01*
X95833428Y-91913674D01*
X96333428Y-91913674D01*
X96619142Y-91985102D01*
X96762000Y-92127960D01*
X96833428Y-92270817D01*
X95333428Y-85450668D02*
X96833428Y-85450668D01*
X95333428Y-86307811D01*
X96833428Y-86307811D01*
X95476285Y-87879240D02*
X95404857Y-87807811D01*
X95333428Y-87593525D01*
X95333428Y-87450668D01*
X95404857Y-87236382D01*
X95547714Y-87093525D01*
X95690571Y-87022097D01*
X95976285Y-86950668D01*
X96190571Y-86950668D01*
X96476285Y-87022097D01*
X96619142Y-87093525D01*
X96762000Y-87236382D01*
X96833428Y-87450668D01*
X96833428Y-87593525D01*
X96762000Y-87807811D01*
X96690571Y-87879240D01*
X95476285Y-80365588D02*
X95404857Y-80294160D01*
X95333428Y-80079874D01*
X95333428Y-79937017D01*
X95404857Y-79722731D01*
X95547714Y-79579874D01*
X95690571Y-79508445D01*
X95976285Y-79437017D01*
X96190571Y-79437017D01*
X96476285Y-79508445D01*
X96619142Y-79579874D01*
X96762000Y-79722731D01*
X96833428Y-79937017D01*
X96833428Y-80079874D01*
X96762000Y-80294160D01*
X96690571Y-80365588D01*
X96833428Y-81294160D02*
X96833428Y-81579874D01*
X96762000Y-81722731D01*
X96619142Y-81865588D01*
X96333428Y-81937017D01*
X95833428Y-81937017D01*
X95547714Y-81865588D01*
X95404857Y-81722731D01*
X95333428Y-81579874D01*
X95333428Y-81294160D01*
X95404857Y-81151302D01*
X95547714Y-81008445D01*
X95833428Y-80937017D01*
X96333428Y-80937017D01*
X96619142Y-81008445D01*
X96762000Y-81151302D01*
X96833428Y-81294160D01*
X95333428Y-82579874D02*
X96833428Y-82579874D01*
X95762000Y-83079874D01*
X96833428Y-83579874D01*
X95333428Y-83579874D01*
X96710891Y-107575931D02*
X95210891Y-107575931D01*
X96710891Y-106718788D01*
X95210891Y-106718788D01*
X95496605Y-97431325D02*
X95425177Y-97359897D01*
X95353748Y-97145611D01*
X95353748Y-97002754D01*
X95425177Y-96788468D01*
X95568034Y-96645611D01*
X95710891Y-96574182D01*
X95996605Y-96502754D01*
X96210891Y-96502754D01*
X96496605Y-96574182D01*
X96639462Y-96645611D01*
X96782320Y-96788468D01*
X96853748Y-97002754D01*
X96853748Y-97145611D01*
X96782320Y-97359897D01*
X96710891Y-97431325D01*
X95226748Y-101725302D02*
X96726748Y-101725302D01*
X96726748Y-102296731D01*
X96655320Y-102439588D01*
X96583891Y-102511017D01*
X96441034Y-102582445D01*
X96226748Y-102582445D01*
X96083891Y-102511017D01*
X96012462Y-102439588D01*
X95941034Y-102296731D01*
X95941034Y-101725302D01*
D12*
X110763520Y-93934600D02*
X110763520Y-114134600D01*
X144763520Y-114134600D02*
X110763520Y-114134600D01*
X144763520Y-93934600D02*
X144763520Y-114134600D01*
X110763520Y-93934600D02*
X144763520Y-93934600D01*
D13*
X117227360Y-63338960D02*
X117227360Y-64608960D01*
X116592360Y-63973960D02*
X117862360Y-63973960D01*
D12*
X113575960Y-59018160D02*
X136575960Y-59018160D01*
X136575960Y-59018160D02*
X136575960Y-65018160D01*
X113575960Y-65018160D02*
X136575960Y-65018160D01*
X113575960Y-59018160D02*
X113575960Y-65018160D01*
D13*
X132822960Y-63288160D02*
X132822960Y-64558160D01*
X132187960Y-63923160D02*
X133457960Y-63923160D01*
D14*
X110252040Y-94449120D02*
X97652040Y-94449120D01*
X97652040Y-94449120D02*
X97652040Y-109849120D01*
X97652040Y-109849120D02*
X98602040Y-109849120D01*
X98602040Y-109849120D02*
X98302040Y-110349120D01*
X98302040Y-110349120D02*
X100302040Y-110349120D01*
X100302040Y-110349120D02*
X100052040Y-109849120D01*
X100052040Y-109849120D02*
X105452040Y-109849120D01*
X105452040Y-109849120D02*
X105202040Y-110349120D01*
X105202040Y-110349120D02*
X110252040Y-110349120D01*
X110252040Y-110349120D02*
X110252040Y-94449120D01*
X110307920Y-78983040D02*
X97707920Y-78983040D01*
X97707920Y-78983040D02*
X97707920Y-94383040D01*
X97707920Y-94383040D02*
X98657920Y-94383040D01*
X98657920Y-94383040D02*
X98357920Y-94883040D01*
X98357920Y-94883040D02*
X100357920Y-94883040D01*
X100357920Y-94883040D02*
X100107920Y-94383040D01*
X100107920Y-94383040D02*
X105507920Y-94383040D01*
X105507920Y-94383040D02*
X105257920Y-94883040D01*
X105257920Y-94883040D02*
X110307920Y-94883040D01*
X110307920Y-94883040D02*
X110307920Y-78983040D01*
D12*
X114026320Y-67784600D02*
X134026320Y-67784600D01*
X134026320Y-70184600D02*
X114026320Y-70184600D01*
X113826320Y-92184600D02*
X134026320Y-92184600D01*
X134026320Y-89784600D02*
X113826320Y-89784600D01*
X114026320Y-70184600D02*
X114026320Y-67984600D01*
X114026320Y-67984600D02*
X114026320Y-67784600D01*
X134026320Y-67784600D02*
X134026320Y-70184600D01*
X134026320Y-89784600D02*
X134026320Y-92184600D01*
X113826320Y-92184600D02*
X113826320Y-89784600D01*
X113431320Y-65379600D02*
X113405920Y-93548200D01*
X113405920Y-93548200D02*
X163393120Y-93548200D01*
X163393120Y-93548200D02*
X163393120Y-89509600D01*
X163393120Y-89509600D02*
X164942520Y-89509600D01*
X164942520Y-89509600D02*
X164942520Y-70586600D01*
X164942520Y-70586600D02*
X163443920Y-70586600D01*
X163443920Y-70586600D02*
X163443920Y-65405000D01*
X163443920Y-65405000D02*
X113507520Y-65405000D01*
X113507520Y-65405000D02*
X113456720Y-65455800D01*
X97553920Y-75288920D02*
X97553920Y-78588920D01*
X97553920Y-78588920D02*
X112953920Y-78588920D01*
X112953920Y-78588920D02*
X112953920Y-75238920D01*
X103903920Y-58988920D02*
X97553920Y-58988920D01*
X97553920Y-58988920D02*
X97553920Y-73538920D01*
X106653920Y-58988920D02*
X112953920Y-58988920D01*
X112953920Y-58988920D02*
X112953920Y-73738920D01*
X112903920Y-58988920D02*
X106653920Y-58988920D01*
X101053920Y-74438920D02*
X103503920Y-74438920D01*
X109453920Y-74438920D02*
X106953920Y-74438920D01*
X99203920Y-63838920D02*
X99203920Y-66338920D01*
X105203920Y-62938920D02*
X105203920Y-62138920D01*
X111203920Y-66338920D02*
X111203920Y-63838920D01*
X105203920Y-69738920D02*
X105203920Y-71238920D01*
X105203920Y-71238920D02*
X107703920Y-75838920D01*
X101603920Y-69738920D02*
X101603920Y-62938920D01*
X105203920Y-69738920D02*
X101603920Y-69738920D01*
X105203920Y-62938920D02*
X101603920Y-62938920D01*
X111203920Y-66338920D02*
X107003920Y-66338920D01*
X103403920Y-66338920D02*
X99203920Y-66338920D01*
X103403920Y-68338920D02*
X107003920Y-64338920D01*
X103403920Y-64338920D02*
X107003920Y-64338920D01*
X107003920Y-64338920D02*
X107003920Y-68338920D01*
X107003920Y-68338920D02*
X103403920Y-68338920D01*
X103403920Y-68338920D02*
X103403920Y-64338920D01*
X113715900Y-97882695D02*
X112715900Y-97882695D01*
X112715900Y-97501742D01*
X112763520Y-97406504D01*
X112811139Y-97358885D01*
X112906377Y-97311266D01*
X113049234Y-97311266D01*
X113144472Y-97358885D01*
X113192091Y-97406504D01*
X113239710Y-97501742D01*
X113239710Y-97882695D01*
X112811139Y-96930314D02*
X112763520Y-96882695D01*
X112715900Y-96787457D01*
X112715900Y-96549361D01*
X112763520Y-96454123D01*
X112811139Y-96406504D01*
X112906377Y-96358885D01*
X113001615Y-96358885D01*
X113144472Y-96406504D01*
X113715900Y-96977933D01*
X113715900Y-96358885D01*
D15*
X124187131Y-62842502D02*
X124404845Y-62915074D01*
X124477417Y-62987645D01*
X124549988Y-63132788D01*
X124549988Y-63350502D01*
X124477417Y-63495645D01*
X124404845Y-63568217D01*
X124259702Y-63640788D01*
X123679131Y-63640788D01*
X123679131Y-62116788D01*
X124187131Y-62116788D01*
X124332274Y-62189360D01*
X124404845Y-62261931D01*
X124477417Y-62407074D01*
X124477417Y-62552217D01*
X124404845Y-62697360D01*
X124332274Y-62769931D01*
X124187131Y-62842502D01*
X123679131Y-62842502D01*
X124985417Y-62116788D02*
X125856274Y-62116788D01*
X125420845Y-63640788D02*
X125420845Y-62116788D01*
X127162560Y-63640788D02*
X126291702Y-63640788D01*
X126727131Y-63640788D02*
X126727131Y-62116788D01*
X126581988Y-62334502D01*
X126436845Y-62479645D01*
X126291702Y-62552217D01*
D12*
X108371900Y-102978175D02*
X107371900Y-102978175D01*
X107371900Y-102597222D01*
X107419520Y-102501984D01*
X107467139Y-102454365D01*
X107562377Y-102406746D01*
X107705234Y-102406746D01*
X107800472Y-102454365D01*
X107848091Y-102501984D01*
X107895710Y-102597222D01*
X107895710Y-102978175D01*
X108371900Y-101454365D02*
X108371900Y-102025794D01*
X108371900Y-101740080D02*
X107371900Y-101740080D01*
X107514758Y-101835318D01*
X107609996Y-101930556D01*
X107657615Y-102025794D01*
X108564940Y-87077775D02*
X107564940Y-87077775D01*
X107564940Y-86696822D01*
X107612560Y-86601584D01*
X107660179Y-86553965D01*
X107755417Y-86506346D01*
X107898274Y-86506346D01*
X107993512Y-86553965D01*
X108041131Y-86601584D01*
X108088750Y-86696822D01*
X108088750Y-87077775D01*
X107898274Y-85649203D02*
X108564940Y-85649203D01*
X107517321Y-85887299D02*
X108231607Y-86125394D01*
X108231607Y-85506346D01*
D16*
X114256699Y-67274923D02*
X114256699Y-66004923D01*
X114740508Y-66004923D01*
X114861460Y-66065400D01*
X114921937Y-66125876D01*
X114982413Y-66246828D01*
X114982413Y-66428257D01*
X114921937Y-66549209D01*
X114861460Y-66609685D01*
X114740508Y-66670161D01*
X114256699Y-66670161D01*
X115405746Y-66004923D02*
X116191937Y-66004923D01*
X115768603Y-66488733D01*
X115950032Y-66488733D01*
X116070984Y-66549209D01*
X116131460Y-66609685D01*
X116191937Y-66730638D01*
X116191937Y-67033019D01*
X116131460Y-67153971D01*
X116070984Y-67214447D01*
X115950032Y-67274923D01*
X115587175Y-67274923D01*
X115466222Y-67214447D01*
X115405746Y-67153971D01*
D12*
X100903824Y-60427300D02*
X100903824Y-59427300D01*
X101475253Y-60427300D02*
X101046681Y-59855872D01*
X101475253Y-59427300D02*
X100903824Y-59998729D01*
X102427634Y-60427300D02*
X101856205Y-60427300D01*
X102141920Y-60427300D02*
X102141920Y-59427300D01*
X102046681Y-59570158D01*
X101951443Y-59665396D01*
X101856205Y-59713015D01*
M02*
