G04 #@! TF.GenerationSoftware,KiCad,Pcbnew,no-vcs-found-7664~57~ubuntu16.10.1*
G04 #@! TF.CreationDate,2017-02-19T10:59:36+01:00*
G04 #@! TF.ProjectId,relayboard,72656C6179626F6172642E6B69636164,rev?*
G04 #@! TF.FileFunction,Legend,Bot*
G04 #@! TF.FilePolarity,Positive*
%FSLAX46Y46*%
G04 Gerber Fmt 4.6, Leading zero omitted, Abs format (unit mm)*
G04 Created by KiCad (PCBNEW no-vcs-found-7664~57~ubuntu16.10.1) date Sun Feb 19 10:59:36 2017*
%MOMM*%
%LPD*%
G01*
G04 APERTURE LIST*
%ADD10C,0.100000*%
%ADD11C,0.300000*%
%ADD12C,0.150000*%
G04 APERTURE END LIST*
D10*
D11*
X158854382Y-88375125D02*
X158925811Y-88589411D01*
X158925811Y-88946554D01*
X158854382Y-89089411D01*
X158782954Y-89160840D01*
X158640097Y-89232268D01*
X158497240Y-89232268D01*
X158354382Y-89160840D01*
X158282954Y-89089411D01*
X158211525Y-88946554D01*
X158140097Y-88660840D01*
X158068668Y-88517982D01*
X157997240Y-88446554D01*
X157854382Y-88375125D01*
X157711525Y-88375125D01*
X157568668Y-88446554D01*
X157497240Y-88517982D01*
X157425811Y-88660840D01*
X157425811Y-89017982D01*
X157497240Y-89232268D01*
X158854382Y-90446554D02*
X158925811Y-90303697D01*
X158925811Y-90017982D01*
X158854382Y-89875125D01*
X158711525Y-89803697D01*
X158140097Y-89803697D01*
X157997240Y-89875125D01*
X157925811Y-90017982D01*
X157925811Y-90303697D01*
X157997240Y-90446554D01*
X158140097Y-90517982D01*
X158282954Y-90517982D01*
X158425811Y-89803697D01*
X157925811Y-91160840D02*
X158925811Y-91160840D01*
X158068668Y-91160840D02*
X157997240Y-91232268D01*
X157925811Y-91375125D01*
X157925811Y-91589411D01*
X157997240Y-91732268D01*
X158140097Y-91803697D01*
X158925811Y-91803697D01*
X158854382Y-92446554D02*
X158925811Y-92589411D01*
X158925811Y-92875125D01*
X158854382Y-93017982D01*
X158711525Y-93089411D01*
X158640097Y-93089411D01*
X158497240Y-93017982D01*
X158425811Y-92875125D01*
X158425811Y-92660840D01*
X158354382Y-92517982D01*
X158211525Y-92446554D01*
X158140097Y-92446554D01*
X157997240Y-92517982D01*
X157925811Y-92660840D01*
X157925811Y-92875125D01*
X157997240Y-93017982D01*
X158925811Y-93946554D02*
X158854382Y-93803697D01*
X158782954Y-93732268D01*
X158640097Y-93660840D01*
X158211525Y-93660840D01*
X158068668Y-93732268D01*
X157997240Y-93803697D01*
X157925811Y-93946554D01*
X157925811Y-94160840D01*
X157997240Y-94303697D01*
X158068668Y-94375125D01*
X158211525Y-94446554D01*
X158640097Y-94446554D01*
X158782954Y-94375125D01*
X158854382Y-94303697D01*
X158925811Y-94160840D01*
X158925811Y-93946554D01*
X158925811Y-95089411D02*
X157925811Y-95089411D01*
X158211525Y-95089411D02*
X158068668Y-95160840D01*
X157997240Y-95232268D01*
X157925811Y-95375125D01*
X157925811Y-95517982D01*
X158854382Y-95946554D02*
X158925811Y-96089411D01*
X158925811Y-96375125D01*
X158854382Y-96517982D01*
X158711525Y-96589411D01*
X158640097Y-96589411D01*
X158497240Y-96517982D01*
X158425811Y-96375125D01*
X158425811Y-96160840D01*
X158354382Y-96017982D01*
X158211525Y-95946554D01*
X158140097Y-95946554D01*
X157997240Y-96017982D01*
X157925811Y-96160840D01*
X157925811Y-96375125D01*
X157997240Y-96517982D01*
X157425811Y-98375125D02*
X158640097Y-98375125D01*
X158782954Y-98446554D01*
X158854382Y-98517982D01*
X158925811Y-98660840D01*
X158925811Y-98946554D01*
X158854382Y-99089411D01*
X158782954Y-99160840D01*
X158640097Y-99232268D01*
X157425811Y-99232268D01*
X157925811Y-99946554D02*
X158925811Y-99946554D01*
X158068668Y-99946554D02*
X157997240Y-100017982D01*
X157925811Y-100160840D01*
X157925811Y-100375125D01*
X157997240Y-100517982D01*
X158140097Y-100589411D01*
X158925811Y-100589411D01*
X158925811Y-101517982D02*
X158854382Y-101375125D01*
X158711525Y-101303697D01*
X157425811Y-101303697D01*
X158854382Y-102660840D02*
X158925811Y-102517982D01*
X158925811Y-102232268D01*
X158854382Y-102089411D01*
X158711525Y-102017982D01*
X158140097Y-102017982D01*
X157997240Y-102089411D01*
X157925811Y-102232268D01*
X157925811Y-102517982D01*
X157997240Y-102660840D01*
X158140097Y-102732268D01*
X158282954Y-102732268D01*
X158425811Y-102017982D01*
X158925811Y-104017982D02*
X158140097Y-104017982D01*
X157997240Y-103946554D01*
X157925811Y-103803697D01*
X157925811Y-103517982D01*
X157997240Y-103375125D01*
X158854382Y-104017982D02*
X158925811Y-103875125D01*
X158925811Y-103517982D01*
X158854382Y-103375125D01*
X158711525Y-103303697D01*
X158568668Y-103303697D01*
X158425811Y-103375125D01*
X158354382Y-103517982D01*
X158354382Y-103875125D01*
X158282954Y-104017982D01*
X158854382Y-104660840D02*
X158925811Y-104803697D01*
X158925811Y-105089411D01*
X158854382Y-105232268D01*
X158711525Y-105303697D01*
X158640097Y-105303697D01*
X158497240Y-105232268D01*
X158425811Y-105089411D01*
X158425811Y-104875125D01*
X158354382Y-104732268D01*
X158211525Y-104660840D01*
X158140097Y-104660840D01*
X157997240Y-104732268D01*
X157925811Y-104875125D01*
X157925811Y-105089411D01*
X157997240Y-105232268D01*
X158854382Y-106517982D02*
X158925811Y-106375125D01*
X158925811Y-106089411D01*
X158854382Y-105946554D01*
X158711525Y-105875125D01*
X158140097Y-105875125D01*
X157997240Y-105946554D01*
X157925811Y-106089411D01*
X157925811Y-106375125D01*
X157997240Y-106517982D01*
X158140097Y-106589411D01*
X158282954Y-106589411D01*
X158425811Y-105875125D01*
X158925811Y-107875125D02*
X157425811Y-107875125D01*
X158854382Y-107875125D02*
X158925811Y-107732268D01*
X158925811Y-107446554D01*
X158854382Y-107303697D01*
X158782954Y-107232268D01*
X158640097Y-107160840D01*
X158211525Y-107160840D01*
X158068668Y-107232268D01*
X157997240Y-107303697D01*
X157925811Y-107446554D01*
X157925811Y-107732268D01*
X157997240Y-107875125D01*
X161475811Y-89803697D02*
X160761525Y-89303697D01*
X161475811Y-88946554D02*
X159975811Y-88946554D01*
X159975811Y-89517982D01*
X160047240Y-89660840D01*
X160118668Y-89732268D01*
X160261525Y-89803697D01*
X160475811Y-89803697D01*
X160618668Y-89732268D01*
X160690097Y-89660840D01*
X160761525Y-89517982D01*
X160761525Y-88946554D01*
X161404382Y-91017982D02*
X161475811Y-90875125D01*
X161475811Y-90589411D01*
X161404382Y-90446554D01*
X161261525Y-90375125D01*
X160690097Y-90375125D01*
X160547240Y-90446554D01*
X160475811Y-90589411D01*
X160475811Y-90875125D01*
X160547240Y-91017982D01*
X160690097Y-91089411D01*
X160832954Y-91089411D01*
X160975811Y-90375125D01*
X161475811Y-91946554D02*
X161404382Y-91803697D01*
X161261525Y-91732268D01*
X159975811Y-91732268D01*
X161475811Y-93160840D02*
X160690097Y-93160840D01*
X160547240Y-93089411D01*
X160475811Y-92946554D01*
X160475811Y-92660840D01*
X160547240Y-92517982D01*
X161404382Y-93160840D02*
X161475811Y-93017982D01*
X161475811Y-92660840D01*
X161404382Y-92517982D01*
X161261525Y-92446554D01*
X161118668Y-92446554D01*
X160975811Y-92517982D01*
X160904382Y-92660840D01*
X160904382Y-93017982D01*
X160832954Y-93160840D01*
X160475811Y-93732268D02*
X161475811Y-94089411D01*
X160475811Y-94446554D02*
X161475811Y-94089411D01*
X161832954Y-93946554D01*
X161904382Y-93875125D01*
X161975811Y-93732268D01*
X161475811Y-95017982D02*
X159975811Y-95017982D01*
X160547240Y-95017982D02*
X160475811Y-95160840D01*
X160475811Y-95446554D01*
X160547240Y-95589411D01*
X160618668Y-95660840D01*
X160761525Y-95732268D01*
X161190097Y-95732268D01*
X161332954Y-95660840D01*
X161404382Y-95589411D01*
X161475811Y-95446554D01*
X161475811Y-95160840D01*
X161404382Y-95017982D01*
X161475811Y-96589411D02*
X161404382Y-96446554D01*
X161332954Y-96375125D01*
X161190097Y-96303697D01*
X160761525Y-96303697D01*
X160618668Y-96375125D01*
X160547240Y-96446554D01*
X160475811Y-96589411D01*
X160475811Y-96803697D01*
X160547240Y-96946554D01*
X160618668Y-97017982D01*
X160761525Y-97089411D01*
X161190097Y-97089411D01*
X161332954Y-97017982D01*
X161404382Y-96946554D01*
X161475811Y-96803697D01*
X161475811Y-96589411D01*
X161475811Y-98375125D02*
X160690097Y-98375125D01*
X160547240Y-98303697D01*
X160475811Y-98160840D01*
X160475811Y-97875125D01*
X160547240Y-97732268D01*
X161404382Y-98375125D02*
X161475811Y-98232268D01*
X161475811Y-97875125D01*
X161404382Y-97732268D01*
X161261525Y-97660840D01*
X161118668Y-97660840D01*
X160975811Y-97732268D01*
X160904382Y-97875125D01*
X160904382Y-98232268D01*
X160832954Y-98375125D01*
X161475811Y-99089411D02*
X160475811Y-99089411D01*
X160761525Y-99089411D02*
X160618668Y-99160840D01*
X160547240Y-99232268D01*
X160475811Y-99375125D01*
X160475811Y-99517982D01*
X161475811Y-100660840D02*
X159975811Y-100660840D01*
X161404382Y-100660840D02*
X161475811Y-100517982D01*
X161475811Y-100232268D01*
X161404382Y-100089411D01*
X161332954Y-100017982D01*
X161190097Y-99946554D01*
X160761525Y-99946554D01*
X160618668Y-100017982D01*
X160547240Y-100089411D01*
X160475811Y-100232268D01*
X160475811Y-100517982D01*
X160547240Y-100660840D01*
X159975811Y-102303697D02*
X161475811Y-102803697D01*
X159975811Y-103303697D01*
X161332954Y-103803697D02*
X161404382Y-103875125D01*
X161475811Y-103803697D01*
X161404382Y-103732268D01*
X161332954Y-103803697D01*
X161475811Y-103803697D01*
X161475811Y-105303697D02*
X161475811Y-104446554D01*
X161475811Y-104875125D02*
X159975811Y-104875125D01*
X160190097Y-104732268D01*
X160332954Y-104589411D01*
X160404382Y-104446554D01*
X161332954Y-105946554D02*
X161404382Y-106017982D01*
X161475811Y-105946554D01*
X161404382Y-105875125D01*
X161332954Y-105946554D01*
X161475811Y-105946554D01*
X159975811Y-106946554D02*
X159975811Y-107089411D01*
X160047240Y-107232268D01*
X160118668Y-107303697D01*
X160261525Y-107375125D01*
X160547240Y-107446554D01*
X160904382Y-107446554D01*
X161190097Y-107375125D01*
X161332954Y-107303697D01*
X161404382Y-107232268D01*
X161475811Y-107089411D01*
X161475811Y-106946554D01*
X161404382Y-106803697D01*
X161332954Y-106732268D01*
X161190097Y-106660840D01*
X160904382Y-106589411D01*
X160547240Y-106589411D01*
X160261525Y-106660840D01*
X160118668Y-106732268D01*
X160047240Y-106803697D01*
X159975811Y-106946554D01*
X163025811Y-83017982D02*
X164025811Y-83303697D01*
X163311525Y-83589411D01*
X164025811Y-83875125D01*
X163025811Y-84160840D01*
X163025811Y-84589411D02*
X164025811Y-84875125D01*
X163311525Y-85160840D01*
X164025811Y-85446554D01*
X163025811Y-85732268D01*
X163025811Y-86160840D02*
X164025811Y-86446554D01*
X163311525Y-86732268D01*
X164025811Y-87017982D01*
X163025811Y-87303697D01*
X163882954Y-87875125D02*
X163954382Y-87946554D01*
X164025811Y-87875125D01*
X163954382Y-87803697D01*
X163882954Y-87875125D01*
X164025811Y-87875125D01*
X163954382Y-88517982D02*
X164025811Y-88660840D01*
X164025811Y-88946554D01*
X163954382Y-89089411D01*
X163811525Y-89160840D01*
X163740097Y-89160840D01*
X163597240Y-89089411D01*
X163525811Y-88946554D01*
X163525811Y-88732268D01*
X163454382Y-88589411D01*
X163311525Y-88517982D01*
X163240097Y-88517982D01*
X163097240Y-88589411D01*
X163025811Y-88732268D01*
X163025811Y-88946554D01*
X163097240Y-89089411D01*
X163954382Y-90375125D02*
X164025811Y-90232268D01*
X164025811Y-89946554D01*
X163954382Y-89803697D01*
X163811525Y-89732268D01*
X163240097Y-89732268D01*
X163097240Y-89803697D01*
X163025811Y-89946554D01*
X163025811Y-90232268D01*
X163097240Y-90375125D01*
X163240097Y-90446554D01*
X163382954Y-90446554D01*
X163525811Y-89732268D01*
X163025811Y-91089411D02*
X164025811Y-91089411D01*
X163168668Y-91089411D02*
X163097240Y-91160840D01*
X163025811Y-91303697D01*
X163025811Y-91517982D01*
X163097240Y-91660840D01*
X163240097Y-91732268D01*
X164025811Y-91732268D01*
X163954382Y-92375125D02*
X164025811Y-92517982D01*
X164025811Y-92803697D01*
X163954382Y-92946554D01*
X163811525Y-93017982D01*
X163740097Y-93017982D01*
X163597240Y-92946554D01*
X163525811Y-92803697D01*
X163525811Y-92589411D01*
X163454382Y-92446554D01*
X163311525Y-92375125D01*
X163240097Y-92375125D01*
X163097240Y-92446554D01*
X163025811Y-92589411D01*
X163025811Y-92803697D01*
X163097240Y-92946554D01*
X164025811Y-93875125D02*
X163954382Y-93732268D01*
X163882954Y-93660840D01*
X163740097Y-93589411D01*
X163311525Y-93589411D01*
X163168668Y-93660840D01*
X163097240Y-93732268D01*
X163025811Y-93875125D01*
X163025811Y-94089411D01*
X163097240Y-94232268D01*
X163168668Y-94303697D01*
X163311525Y-94375125D01*
X163740097Y-94375125D01*
X163882954Y-94303697D01*
X163954382Y-94232268D01*
X164025811Y-94089411D01*
X164025811Y-93875125D01*
X164025811Y-95017982D02*
X163025811Y-95017982D01*
X163311525Y-95017982D02*
X163168668Y-95089411D01*
X163097240Y-95160840D01*
X163025811Y-95303697D01*
X163025811Y-95446554D01*
X163954382Y-95875125D02*
X164025811Y-96017982D01*
X164025811Y-96303697D01*
X163954382Y-96446554D01*
X163811525Y-96517982D01*
X163740097Y-96517982D01*
X163597240Y-96446554D01*
X163525811Y-96303697D01*
X163525811Y-96089411D01*
X163454382Y-95946554D01*
X163311525Y-95875125D01*
X163240097Y-95875125D01*
X163097240Y-95946554D01*
X163025811Y-96089411D01*
X163025811Y-96303697D01*
X163097240Y-96446554D01*
X163025811Y-97803697D02*
X164025811Y-97803697D01*
X163025811Y-97160840D02*
X163811525Y-97160840D01*
X163954382Y-97232268D01*
X164025811Y-97375125D01*
X164025811Y-97589411D01*
X163954382Y-97732268D01*
X163882954Y-97803697D01*
X163025811Y-98517982D02*
X164025811Y-98517982D01*
X163168668Y-98517982D02*
X163097240Y-98589411D01*
X163025811Y-98732268D01*
X163025811Y-98946554D01*
X163097240Y-99089411D01*
X163240097Y-99160840D01*
X164025811Y-99160840D01*
X164025811Y-100089411D02*
X163954382Y-99946554D01*
X163811525Y-99875125D01*
X162525811Y-99875125D01*
X163954382Y-101232268D02*
X164025811Y-101089411D01*
X164025811Y-100803697D01*
X163954382Y-100660840D01*
X163811525Y-100589411D01*
X163240097Y-100589411D01*
X163097240Y-100660840D01*
X163025811Y-100803697D01*
X163025811Y-101089411D01*
X163097240Y-101232268D01*
X163240097Y-101303697D01*
X163382954Y-101303697D01*
X163525811Y-100589411D01*
X164025811Y-102589411D02*
X163240097Y-102589411D01*
X163097240Y-102517982D01*
X163025811Y-102375125D01*
X163025811Y-102089411D01*
X163097240Y-101946554D01*
X163954382Y-102589411D02*
X164025811Y-102446554D01*
X164025811Y-102089411D01*
X163954382Y-101946554D01*
X163811525Y-101875125D01*
X163668668Y-101875125D01*
X163525811Y-101946554D01*
X163454382Y-102089411D01*
X163454382Y-102446554D01*
X163382954Y-102589411D01*
X163954382Y-103232268D02*
X164025811Y-103375125D01*
X164025811Y-103660840D01*
X163954382Y-103803697D01*
X163811525Y-103875125D01*
X163740097Y-103875125D01*
X163597240Y-103803697D01*
X163525811Y-103660840D01*
X163525811Y-103446554D01*
X163454382Y-103303697D01*
X163311525Y-103232268D01*
X163240097Y-103232268D01*
X163097240Y-103303697D01*
X163025811Y-103446554D01*
X163025811Y-103660840D01*
X163097240Y-103803697D01*
X164025811Y-104517982D02*
X162525811Y-104517982D01*
X164025811Y-105160840D02*
X163240097Y-105160840D01*
X163097240Y-105089411D01*
X163025811Y-104946554D01*
X163025811Y-104732268D01*
X163097240Y-104589411D01*
X163168668Y-104517982D01*
X163954382Y-106446554D02*
X164025811Y-106303697D01*
X164025811Y-106017982D01*
X163954382Y-105875125D01*
X163811525Y-105803697D01*
X163240097Y-105803697D01*
X163097240Y-105875125D01*
X163025811Y-106017982D01*
X163025811Y-106303697D01*
X163097240Y-106446554D01*
X163240097Y-106517982D01*
X163382954Y-106517982D01*
X163525811Y-105803697D01*
X164025811Y-107803697D02*
X162525811Y-107803697D01*
X163954382Y-107803697D02*
X164025811Y-107660840D01*
X164025811Y-107375125D01*
X163954382Y-107232268D01*
X163882954Y-107160840D01*
X163740097Y-107089411D01*
X163311525Y-107089411D01*
X163168668Y-107160840D01*
X163097240Y-107232268D01*
X163025811Y-107375125D01*
X163025811Y-107660840D01*
X163097240Y-107803697D01*
X163882954Y-108517982D02*
X163954382Y-108589411D01*
X164025811Y-108517982D01*
X163954382Y-108446554D01*
X163882954Y-108517982D01*
X164025811Y-108517982D01*
X163954382Y-109875125D02*
X164025811Y-109732268D01*
X164025811Y-109446554D01*
X163954382Y-109303697D01*
X163882954Y-109232268D01*
X163740097Y-109160840D01*
X163311525Y-109160840D01*
X163168668Y-109232268D01*
X163097240Y-109303697D01*
X163025811Y-109446554D01*
X163025811Y-109732268D01*
X163097240Y-109875125D01*
X164025811Y-110732268D02*
X163954382Y-110589411D01*
X163882954Y-110517982D01*
X163740097Y-110446554D01*
X163311525Y-110446554D01*
X163168668Y-110517982D01*
X163097240Y-110589411D01*
X163025811Y-110732268D01*
X163025811Y-110946554D01*
X163097240Y-111089411D01*
X163168668Y-111160840D01*
X163311525Y-111232268D01*
X163740097Y-111232268D01*
X163882954Y-111160840D01*
X163954382Y-111089411D01*
X164025811Y-110946554D01*
X164025811Y-110732268D01*
X164025811Y-111875125D02*
X163025811Y-111875125D01*
X163168668Y-111875125D02*
X163097240Y-111946554D01*
X163025811Y-112089411D01*
X163025811Y-112303697D01*
X163097240Y-112446554D01*
X163240097Y-112517982D01*
X164025811Y-112517982D01*
X163240097Y-112517982D02*
X163097240Y-112589411D01*
X163025811Y-112732268D01*
X163025811Y-112946554D01*
X163097240Y-113089411D01*
X163240097Y-113160840D01*
X164025811Y-113160840D01*
D12*
X136216360Y-96799960D02*
X136216360Y-95599960D01*
X134466360Y-95599960D02*
X134466360Y-96799960D01*
X127711760Y-96259680D02*
X126511760Y-96259680D01*
X126511760Y-98009680D02*
X127711760Y-98009680D01*
X112349040Y-82496840D02*
X112349040Y-81096840D01*
X117449040Y-82496840D02*
X117449040Y-86646840D01*
X112299040Y-82496840D02*
X112299040Y-86646840D01*
X117449040Y-82496840D02*
X117304040Y-82496840D01*
X117449040Y-86646840D02*
X117304040Y-86646840D01*
X112299040Y-86646840D02*
X112444040Y-86646840D01*
X112299040Y-82496840D02*
X112349040Y-82496840D01*
X135150480Y-87809440D02*
X134150480Y-87809440D01*
X134150480Y-86109440D02*
X135150480Y-86109440D01*
X134149720Y-83828520D02*
X135149720Y-83828520D01*
X135149720Y-85528520D02*
X134149720Y-85528520D01*
X133854560Y-95745680D02*
X133854560Y-96745680D01*
X132154560Y-96745680D02*
X132154560Y-95745680D01*
X102692680Y-65900200D02*
X105092680Y-65900200D01*
X102692680Y-64300200D02*
X105092680Y-64300200D01*
X114568020Y-74630280D02*
X114568020Y-75331320D01*
X114768680Y-74630280D02*
X114568020Y-74630280D01*
X117567660Y-74630280D02*
X117318740Y-74630280D01*
X117567660Y-75331320D02*
X117567660Y-74630280D01*
X114768680Y-74630280D02*
X114816940Y-74630280D01*
X117890320Y-95605040D02*
X117890320Y-96805040D01*
X119640320Y-96805040D02*
X119640320Y-95605040D01*
X121850120Y-96794880D02*
X121850120Y-95594880D01*
X120100120Y-95594880D02*
X120100120Y-96794880D01*
X124059920Y-96794880D02*
X124059920Y-95594880D01*
X122309920Y-95594880D02*
X122309920Y-96794880D01*
X129889280Y-95599960D02*
X129889280Y-96799960D01*
X131639280Y-96799960D02*
X131639280Y-95599960D01*
X134989600Y-76280720D02*
X134989600Y-77480720D01*
X136739600Y-77480720D02*
X136739600Y-76280720D01*
X120034080Y-86643880D02*
X120034080Y-87843880D01*
X121784080Y-87843880D02*
X121784080Y-86643880D01*
X132541040Y-76240080D02*
X132541040Y-77440080D01*
X134291040Y-77440080D02*
X134291040Y-76240080D01*
X125435360Y-88234520D02*
X126197360Y-88234520D01*
X123149360Y-86710520D02*
X125435360Y-88234520D01*
X123149360Y-82646520D02*
X123149360Y-86710520D01*
X125435360Y-81122520D02*
X123149360Y-82646520D01*
X126197360Y-81122520D02*
X125435360Y-81122520D01*
X132293360Y-88234520D02*
X129245360Y-88234520D01*
X132293360Y-81122520D02*
X132293360Y-88234520D01*
X129245360Y-81122520D02*
X132293360Y-81122520D01*
X135979137Y-94198700D02*
X136312470Y-93722510D01*
X136550565Y-94198700D02*
X136550565Y-93198700D01*
X136169613Y-93198700D01*
X136074375Y-93246320D01*
X136026756Y-93293939D01*
X135979137Y-93389177D01*
X135979137Y-93532034D01*
X136026756Y-93627272D01*
X136074375Y-93674891D01*
X136169613Y-93722510D01*
X136550565Y-93722510D01*
X135026756Y-94198700D02*
X135598184Y-94198700D01*
X135312470Y-94198700D02*
X135312470Y-93198700D01*
X135407708Y-93341558D01*
X135502946Y-93436796D01*
X135598184Y-93484415D01*
X134074375Y-94198700D02*
X134645803Y-94198700D01*
X134360089Y-94198700D02*
X134360089Y-93198700D01*
X134455327Y-93341558D01*
X134550565Y-93436796D01*
X134645803Y-93484415D01*
X127678417Y-95687140D02*
X128011750Y-95210950D01*
X128249845Y-95687140D02*
X128249845Y-94687140D01*
X127868893Y-94687140D01*
X127773655Y-94734760D01*
X127726036Y-94782379D01*
X127678417Y-94877617D01*
X127678417Y-95020474D01*
X127726036Y-95115712D01*
X127773655Y-95163331D01*
X127868893Y-95210950D01*
X128249845Y-95210950D01*
X126726036Y-95687140D02*
X127297464Y-95687140D01*
X127011750Y-95687140D02*
X127011750Y-94687140D01*
X127106988Y-94829998D01*
X127202226Y-94925236D01*
X127297464Y-94972855D01*
X126106988Y-94687140D02*
X126011750Y-94687140D01*
X125916512Y-94734760D01*
X125868893Y-94782379D01*
X125821274Y-94877617D01*
X125773655Y-95068093D01*
X125773655Y-95306188D01*
X125821274Y-95496664D01*
X125868893Y-95591902D01*
X125916512Y-95639521D01*
X126011750Y-95687140D01*
X126106988Y-95687140D01*
X126202226Y-95639521D01*
X126249845Y-95591902D01*
X126297464Y-95496664D01*
X126345083Y-95306188D01*
X126345083Y-95068093D01*
X126297464Y-94877617D01*
X126249845Y-94782379D01*
X126202226Y-94734760D01*
X126106988Y-94687140D01*
X111826420Y-83595649D02*
X110826420Y-83595649D01*
X111731182Y-84643268D02*
X111778801Y-84595649D01*
X111826420Y-84452792D01*
X111826420Y-84357554D01*
X111778801Y-84214697D01*
X111683563Y-84119459D01*
X111588325Y-84071840D01*
X111397849Y-84024220D01*
X111254992Y-84024220D01*
X111064516Y-84071840D01*
X110969278Y-84119459D01*
X110874040Y-84214697D01*
X110826420Y-84357554D01*
X110826420Y-84452792D01*
X110874040Y-84595649D01*
X110921659Y-84643268D01*
X111826420Y-85595649D02*
X111826420Y-85024220D01*
X111826420Y-85309935D02*
X110826420Y-85309935D01*
X110969278Y-85214697D01*
X111064516Y-85119459D01*
X111112135Y-85024220D01*
X134984786Y-89196182D02*
X135032405Y-89243801D01*
X135175262Y-89291420D01*
X135270500Y-89291420D01*
X135413358Y-89243801D01*
X135508596Y-89148563D01*
X135556215Y-89053325D01*
X135603834Y-88862849D01*
X135603834Y-88719992D01*
X135556215Y-88529516D01*
X135508596Y-88434278D01*
X135413358Y-88339040D01*
X135270500Y-88291420D01*
X135175262Y-88291420D01*
X135032405Y-88339040D01*
X134984786Y-88386659D01*
X134032405Y-89291420D02*
X134603834Y-89291420D01*
X134318120Y-89291420D02*
X134318120Y-88291420D01*
X134413358Y-88434278D01*
X134508596Y-88529516D01*
X134603834Y-88577135D01*
X134776506Y-83257662D02*
X134824125Y-83305281D01*
X134966982Y-83352900D01*
X135062220Y-83352900D01*
X135205078Y-83305281D01*
X135300316Y-83210043D01*
X135347935Y-83114805D01*
X135395554Y-82924329D01*
X135395554Y-82781472D01*
X135347935Y-82590996D01*
X135300316Y-82495758D01*
X135205078Y-82400520D01*
X135062220Y-82352900D01*
X134966982Y-82352900D01*
X134824125Y-82400520D01*
X134776506Y-82448139D01*
X134395554Y-82448139D02*
X134347935Y-82400520D01*
X134252697Y-82352900D01*
X134014601Y-82352900D01*
X133919363Y-82400520D01*
X133871744Y-82448139D01*
X133824125Y-82543377D01*
X133824125Y-82638615D01*
X133871744Y-82781472D01*
X134443173Y-83352900D01*
X133824125Y-83352900D01*
X133135666Y-94103462D02*
X133183285Y-94151081D01*
X133326142Y-94198700D01*
X133421380Y-94198700D01*
X133564238Y-94151081D01*
X133659476Y-94055843D01*
X133707095Y-93960605D01*
X133754714Y-93770129D01*
X133754714Y-93627272D01*
X133707095Y-93436796D01*
X133659476Y-93341558D01*
X133564238Y-93246320D01*
X133421380Y-93198700D01*
X133326142Y-93198700D01*
X133183285Y-93246320D01*
X133135666Y-93293939D01*
X132802333Y-93198700D02*
X132183285Y-93198700D01*
X132516619Y-93579653D01*
X132373761Y-93579653D01*
X132278523Y-93627272D01*
X132230904Y-93674891D01*
X132183285Y-93770129D01*
X132183285Y-94008224D01*
X132230904Y-94103462D01*
X132278523Y-94151081D01*
X132373761Y-94198700D01*
X132659476Y-94198700D01*
X132754714Y-94151081D01*
X132802333Y-94103462D01*
X106955815Y-64008260D02*
X106955815Y-63008260D01*
X106717720Y-63008260D01*
X106574862Y-63055880D01*
X106479624Y-63151118D01*
X106432005Y-63246356D01*
X106384386Y-63436832D01*
X106384386Y-63579689D01*
X106432005Y-63770165D01*
X106479624Y-63865403D01*
X106574862Y-63960641D01*
X106717720Y-64008260D01*
X106955815Y-64008260D01*
X105432005Y-64008260D02*
X106003434Y-64008260D01*
X105717720Y-64008260D02*
X105717720Y-63008260D01*
X105812958Y-63151118D01*
X105908196Y-63246356D01*
X106003434Y-63293975D01*
X135710918Y-72099419D02*
X135806156Y-72051800D01*
X135901394Y-71956561D01*
X136044251Y-71813704D01*
X136139489Y-71766085D01*
X136234727Y-71766085D01*
X136187108Y-72004180D02*
X136282346Y-71956561D01*
X136377584Y-71861323D01*
X136425203Y-71670847D01*
X136425203Y-71337514D01*
X136377584Y-71147038D01*
X136282346Y-71051800D01*
X136187108Y-71004180D01*
X135996632Y-71004180D01*
X135901394Y-71051800D01*
X135806156Y-71147038D01*
X135758537Y-71337514D01*
X135758537Y-71670847D01*
X135806156Y-71861323D01*
X135901394Y-71956561D01*
X135996632Y-72004180D01*
X136187108Y-72004180D01*
X134806156Y-72004180D02*
X135377584Y-72004180D01*
X135091870Y-72004180D02*
X135091870Y-71004180D01*
X135187108Y-71147038D01*
X135282346Y-71242276D01*
X135377584Y-71289895D01*
X116163078Y-73578139D02*
X116258316Y-73530520D01*
X116353554Y-73435281D01*
X116496411Y-73292424D01*
X116591649Y-73244805D01*
X116686887Y-73244805D01*
X116639268Y-73482900D02*
X116734506Y-73435281D01*
X116829744Y-73340043D01*
X116877363Y-73149567D01*
X116877363Y-72816234D01*
X116829744Y-72625758D01*
X116734506Y-72530520D01*
X116639268Y-72482900D01*
X116448792Y-72482900D01*
X116353554Y-72530520D01*
X116258316Y-72625758D01*
X116210697Y-72816234D01*
X116210697Y-73149567D01*
X116258316Y-73340043D01*
X116353554Y-73435281D01*
X116448792Y-73482900D01*
X116639268Y-73482900D01*
X115829744Y-72578139D02*
X115782125Y-72530520D01*
X115686887Y-72482900D01*
X115448792Y-72482900D01*
X115353554Y-72530520D01*
X115305935Y-72578139D01*
X115258316Y-72673377D01*
X115258316Y-72768615D01*
X115305935Y-72911472D01*
X115877363Y-73482900D01*
X115258316Y-73482900D01*
X118952306Y-94234260D02*
X119285640Y-93758070D01*
X119523735Y-94234260D02*
X119523735Y-93234260D01*
X119142782Y-93234260D01*
X119047544Y-93281880D01*
X118999925Y-93329499D01*
X118952306Y-93424737D01*
X118952306Y-93567594D01*
X118999925Y-93662832D01*
X119047544Y-93710451D01*
X119142782Y-93758070D01*
X119523735Y-93758070D01*
X117999925Y-94234260D02*
X118571354Y-94234260D01*
X118285640Y-94234260D02*
X118285640Y-93234260D01*
X118380878Y-93377118D01*
X118476116Y-93472356D01*
X118571354Y-93519975D01*
X121162106Y-94244420D02*
X121495440Y-93768230D01*
X121733535Y-94244420D02*
X121733535Y-93244420D01*
X121352582Y-93244420D01*
X121257344Y-93292040D01*
X121209725Y-93339659D01*
X121162106Y-93434897D01*
X121162106Y-93577754D01*
X121209725Y-93672992D01*
X121257344Y-93720611D01*
X121352582Y-93768230D01*
X121733535Y-93768230D01*
X120781154Y-93339659D02*
X120733535Y-93292040D01*
X120638297Y-93244420D01*
X120400201Y-93244420D01*
X120304963Y-93292040D01*
X120257344Y-93339659D01*
X120209725Y-93434897D01*
X120209725Y-93530135D01*
X120257344Y-93672992D01*
X120828773Y-94244420D01*
X120209725Y-94244420D01*
X123331266Y-94244420D02*
X123664600Y-93768230D01*
X123902695Y-94244420D02*
X123902695Y-93244420D01*
X123521742Y-93244420D01*
X123426504Y-93292040D01*
X123378885Y-93339659D01*
X123331266Y-93434897D01*
X123331266Y-93577754D01*
X123378885Y-93672992D01*
X123426504Y-93720611D01*
X123521742Y-93768230D01*
X123902695Y-93768230D01*
X122997933Y-93244420D02*
X122378885Y-93244420D01*
X122712219Y-93625373D01*
X122569361Y-93625373D01*
X122474123Y-93672992D01*
X122426504Y-93720611D01*
X122378885Y-93815849D01*
X122378885Y-94053944D01*
X122426504Y-94149182D01*
X122474123Y-94196801D01*
X122569361Y-94244420D01*
X122855076Y-94244420D01*
X122950314Y-94196801D01*
X122997933Y-94149182D01*
X130859826Y-94312340D02*
X131193160Y-93836150D01*
X131431255Y-94312340D02*
X131431255Y-93312340D01*
X131050302Y-93312340D01*
X130955064Y-93359960D01*
X130907445Y-93407579D01*
X130859826Y-93502817D01*
X130859826Y-93645674D01*
X130907445Y-93740912D01*
X130955064Y-93788531D01*
X131050302Y-93836150D01*
X131431255Y-93836150D01*
X130002683Y-93645674D02*
X130002683Y-94312340D01*
X130240779Y-93264721D02*
X130478874Y-93979007D01*
X129859826Y-93979007D01*
X135995706Y-79746100D02*
X136329040Y-79269910D01*
X136567135Y-79746100D02*
X136567135Y-78746100D01*
X136186182Y-78746100D01*
X136090944Y-78793720D01*
X136043325Y-78841339D01*
X135995706Y-78936577D01*
X135995706Y-79079434D01*
X136043325Y-79174672D01*
X136090944Y-79222291D01*
X136186182Y-79269910D01*
X136567135Y-79269910D01*
X135138563Y-78746100D02*
X135329040Y-78746100D01*
X135424278Y-78793720D01*
X135471897Y-78841339D01*
X135567135Y-78984196D01*
X135614754Y-79174672D01*
X135614754Y-79555624D01*
X135567135Y-79650862D01*
X135519516Y-79698481D01*
X135424278Y-79746100D01*
X135233801Y-79746100D01*
X135138563Y-79698481D01*
X135090944Y-79650862D01*
X135043325Y-79555624D01*
X135043325Y-79317529D01*
X135090944Y-79222291D01*
X135138563Y-79174672D01*
X135233801Y-79127053D01*
X135424278Y-79127053D01*
X135519516Y-79174672D01*
X135567135Y-79222291D01*
X135614754Y-79317529D01*
X119665460Y-87077213D02*
X119189270Y-86743880D01*
X119665460Y-86505784D02*
X118665460Y-86505784D01*
X118665460Y-86886737D01*
X118713080Y-86981975D01*
X118760699Y-87029594D01*
X118855937Y-87077213D01*
X118998794Y-87077213D01*
X119094032Y-87029594D01*
X119141651Y-86981975D01*
X119189270Y-86886737D01*
X119189270Y-86505784D01*
X118665460Y-87410546D02*
X118665460Y-88077213D01*
X119665460Y-87648641D01*
X133608106Y-79639420D02*
X133941440Y-79163230D01*
X134179535Y-79639420D02*
X134179535Y-78639420D01*
X133798582Y-78639420D01*
X133703344Y-78687040D01*
X133655725Y-78734659D01*
X133608106Y-78829897D01*
X133608106Y-78972754D01*
X133655725Y-79067992D01*
X133703344Y-79115611D01*
X133798582Y-79163230D01*
X134179535Y-79163230D01*
X133131916Y-79639420D02*
X132941440Y-79639420D01*
X132846201Y-79591801D01*
X132798582Y-79544182D01*
X132703344Y-79401325D01*
X132655725Y-79210849D01*
X132655725Y-78829897D01*
X132703344Y-78734659D01*
X132750963Y-78687040D01*
X132846201Y-78639420D01*
X133036678Y-78639420D01*
X133131916Y-78687040D01*
X133179535Y-78734659D01*
X133227154Y-78829897D01*
X133227154Y-79067992D01*
X133179535Y-79163230D01*
X133131916Y-79210849D01*
X133036678Y-79258468D01*
X132846201Y-79258468D01*
X132750963Y-79210849D01*
X132703344Y-79163230D01*
X132655725Y-79067992D01*
X121817740Y-83904615D02*
X122627264Y-83904615D01*
X122722502Y-83952234D01*
X122770121Y-83999853D01*
X122817740Y-84095091D01*
X122817740Y-84285567D01*
X122770121Y-84380805D01*
X122722502Y-84428424D01*
X122627264Y-84476043D01*
X121817740Y-84476043D01*
X122817740Y-85476043D02*
X122817740Y-84904615D01*
X122817740Y-85190329D02*
X121817740Y-85190329D01*
X121960598Y-85095091D01*
X122055836Y-84999853D01*
X122103455Y-84904615D01*
M02*
