G04 #@! TF.GenerationSoftware,KiCad,Pcbnew,no-vcs-found-7664~57~ubuntu16.10.1*
G04 #@! TF.CreationDate,2017-02-19T10:59:36+01:00*
G04 #@! TF.ProjectId,relayboard,72656C6179626F6172642E6B69636164,rev?*
G04 #@! TF.FileFunction,Soldermask,Bot*
G04 #@! TF.FilePolarity,Negative*
%FSLAX46Y46*%
G04 Gerber Fmt 4.6, Leading zero omitted, Abs format (unit mm)*
G04 Created by KiCad (PCBNEW no-vcs-found-7664~57~ubuntu16.10.1) date Sun Feb 19 10:59:36 2017*
%MOMM*%
%LPD*%
G01*
G04 APERTURE LIST*
%ADD10C,0.100000*%
%ADD11C,2.200000*%
%ADD12C,1.924000*%
%ADD13R,1.700000X1.100000*%
%ADD14R,1.100000X1.700000*%
%ADD15R,1.000000X1.950000*%
%ADD16O,1.760000X2.000000*%
%ADD17R,1.760000X2.000000*%
%ADD18R,1.400000X1.650000*%
%ADD19R,1.650000X1.400000*%
%ADD20R,0.990000X0.850000*%
%ADD21C,2.900000*%
%ADD22C,3.400000*%
%ADD23R,1.800000X1.400000*%
%ADD24R,1.200100X1.200100*%
%ADD25R,2.432000X1.416000*%
%ADD26R,2.432000X4.057600*%
G04 APERTURE END LIST*
D10*
D11*
X113063520Y-101534600D03*
X113063520Y-106534600D03*
X142463520Y-96334600D03*
X142463520Y-111734600D03*
D12*
X130075960Y-64018160D03*
X120075960Y-64018160D03*
X125075960Y-60018160D03*
D13*
X135341360Y-95249960D03*
X135341360Y-97149960D03*
D14*
X126161760Y-97134680D03*
X128061760Y-97134680D03*
D15*
X112969040Y-87271840D03*
X114239040Y-87271840D03*
X115509040Y-87271840D03*
X116779040Y-87271840D03*
X116779040Y-81871840D03*
X115509040Y-81871840D03*
X114239040Y-81871840D03*
X112969040Y-81871840D03*
D16*
X115021320Y-90984600D03*
X117021320Y-90984600D03*
X119021320Y-90984600D03*
X121021320Y-90984600D03*
X123021320Y-90984600D03*
X125021320Y-90984600D03*
X127021320Y-90984600D03*
X129021320Y-90984600D03*
X131021320Y-90984600D03*
D17*
X133021320Y-90984600D03*
X133021320Y-68984600D03*
D16*
X131021320Y-68984600D03*
X129021320Y-68984600D03*
X127021320Y-68984600D03*
X125021320Y-68984600D03*
X123021320Y-68984600D03*
X121021320Y-68984600D03*
X119021320Y-68984600D03*
X117021320Y-68984600D03*
X115021320Y-68984600D03*
D18*
X133650480Y-86959440D03*
X135650480Y-86959440D03*
X135649720Y-84678520D03*
X133649720Y-84678520D03*
D19*
X133004560Y-97245680D03*
X133004560Y-95245680D03*
D20*
X105047680Y-65100200D03*
X102937680Y-65100200D03*
D21*
X99253920Y-62288920D03*
D22*
X99253920Y-74488920D03*
X111253920Y-74488920D03*
D21*
X111253920Y-62288920D03*
D22*
X105253920Y-60288920D03*
D23*
X135565240Y-73258640D03*
X133365240Y-74208640D03*
X133365240Y-72308640D03*
D24*
X116067840Y-74282300D03*
X115117840Y-76281280D03*
X117017840Y-76281280D03*
D13*
X118765320Y-97155040D03*
X118765320Y-95255040D03*
X120975120Y-95244880D03*
X120975120Y-97144880D03*
X123184920Y-95244880D03*
X123184920Y-97144880D03*
X130764280Y-97149960D03*
X130764280Y-95249960D03*
X135864600Y-77830720D03*
X135864600Y-75930720D03*
X120909080Y-88193880D03*
X120909080Y-86293880D03*
X133416040Y-77790080D03*
X133416040Y-75890080D03*
D25*
X131023360Y-82392520D03*
X131023360Y-86964520D03*
X131023360Y-84678520D03*
D26*
X124419360Y-84678520D03*
M02*
